<?xml version="1.0" encoding="UTF-8" standalone="no"?>
<svg
   width="16" height="16" fill="none" viewBox="0 0 16 16" version="1.1"
   xmlns="http://www.w3.org/2000/svg">
  <path stroke-width="1" fill="#87939A"
     d="M 8.0830416,0.51591464 C 6.8458456,0.46725659 5.8631897,1.5064643 5.5952776,2.6484648 5.260447,3.9948455 5.2738708,5.5008505 5.9032706,6.7611481 c -0.373675,0 -0.7473501,0 -1.1210251,0 C 5.2185584,5.7485347 5.0726376,4.2721107 3.9676754,3.7516575 3.3520991,3.2804753 2.0482012,3.5291482 1.9236314,2.5796294 1.9675886,1.824481 2.962976,1.7601827 3.517575,1.9594411 c 0.470223,-0.028322 1.0052749,0.8671437 1.2792024,0.6474076 0,-0.5305494 0,-1.0610988 0,-1.5916482 C 3.6703781,0.41396303 2.0471584,0.22920662 1.1005549,1.2527486 0.3471418,2.0737866 0.33074788,3.4613608 0.98345598,4.3411857 1.5768799,5.0857347 2.6148048,5.0453593 3.3742543,5.4926287 4.0409724,6.1006707 3.1763328,6.9199476 2.4687705,6.7197914 1.6744596,6.7385402 1.0904234,6.0681228 0.48913446,5.7604961 c 0.009895,0.5912949 -0.0282805,1.193057 0.0116045,1.777822 0.60369949,1.3081456 1.20739889,2.6162909 1.81109839,3.9244369 -0.6248677,1.340444 -1.2497355,2.680887 -1.87460319,4.021331 0.50169346,0 1.00338689,0 1.50508039,0 0.3868228,-0.87583 0.7736457,-1.751661 1.1604685,-2.627491 0.379211,0.87583 0.758422,1.751661 1.137633,2.627491 0.9217317,0 1.8434634,0 2.7651951,0 0,-1.782172 0,-3.564345 0,-5.346517 0.3266197,1.156678 0.6532393,2.313357 0.979859,3.470035 0.31278,0 0.6255601,0 0.9383401,0 0.3266197,-1.156678 0.6532393,-2.313357 0.979859,-3.470035 0,1.782172 0,3.564345 0,5.346517 0.4518688,0 0.9037388,0 1.3556078,0 0.0048,-2.418068 0.0097,-4.836137 0.01453,-7.2542052 0.159158,2.4180682 0.318315,4.8361372 0.477473,7.2542052 1.270495,0 2.540991,0 3.811486,0 0,-0.514542 0,-1.029084 0,-1.543626 -0.815857,0 -1.631713,0 -2.44757,0 -0.192373,-2.393104 -0.384746,-4.7862079 -0.577119,-7.1793119 -0.862912,0 -1.725824,0 -2.5887355,0 0,-0.3495 0,-0.6990001 0,-1.0485001 C 9.4185247,5.944939 9.0327556,6.7466172 8.2989428,6.6758532 7.3246115,6.6841415 6.8562033,5.6270892 6.8177055,4.791575 6.7559164,3.8334243 6.806836,2.5832062 7.7467344,2.0470579 c 0.7968563,-0.4142434 1.5738345,0.24683 2.0469085,0.8404651 0.3082431,0.043546 0.090727,-0.4386673 0.1556986,-0.6383926 0,-0.3752505 0,-0.7505009 0,-1.1257514 C 9.4037517,0.73358646 8.7592511,0.50103632 8.0830416,0.51591464 Z M 4.7137384,6.8963714 C 4.1919773,7.9268419 3.6702162,8.9573124 3.1484551,9.9877829 2.8647389,9.3456458 2.5810227,8.7035088 2.2973065,8.0613717 3.2417468,8.1455255 4.2645916,7.7856573 4.7137384,6.8963714 Z M 9.4428037,7.7513985 C 9.125872,9.0023863 8.8089403,10.253374 8.4920086,11.504362 8.2069082,10.350457 7.9218078,9.196553 7.6367074,8.0426485 8.251762,8.1411209 8.8921582,8.048004 9.4428037,7.7513985 Z M 5.722661,7.8762194 C 5.7178213,10.342111 5.7219726,12.808057 5.7205883,15.27397 5.1282431,13.97652 4.5358978,12.679071 3.9435526,11.381621 4.5365887,10.213154 5.1296249,9.0446866 5.722661,7.8762194 Z"/>
</svg>
